<svg width="16" height="16" viewBox="0 0 16 16" fill="none" xmlns="http://www.w3.org/2000/svg">
<path d="M0.160156 7.99986C0.89711 6.55427 2.01939 5.34058 3.40297 4.49293C4.78656 3.64527 6.37756 3.19666 8.00016 3.19666C9.62275 3.19666 11.2138 3.64527 12.5973 4.49293C13.9809 5.34058 15.1032 6.55427 15.8402 7.99986C15.1032 9.44544 13.9809 10.6591 12.5973 11.5068C11.2138 12.3544 9.62275 12.8031 8.00016 12.8031C6.37756 12.8031 4.78656 12.3544 3.40297 11.5068C2.01939 10.6591 0.89711 9.44544 0.160156 7.99986ZM8.00016 11.1999C8.84885 11.1999 9.66278 10.8627 10.2629 10.2626C10.863 9.66248 11.2002 8.84855 11.2002 7.99986C11.2002 7.15116 10.863 6.33723 10.2629 5.73711C9.66278 5.137 8.84885 4.79986 8.00016 4.79986C7.15146 4.79986 6.33753 5.137 5.73741 5.73711C5.1373 6.33723 4.80016 7.15116 4.80016 7.99986C4.80016 8.84855 5.1373 9.66248 5.73741 10.2626C6.33753 10.8627 7.15146 11.1999 8.00016 11.1999ZM8.00016 9.59986C7.57581 9.59986 7.16884 9.43129 6.86879 9.13123C6.56873 8.83117 6.40016 8.4242 6.40016 7.99986C6.40016 7.57551 6.56873 7.16854 6.86879 6.86849C7.16884 6.56843 7.57581 6.39986 8.00016 6.39986C8.4245 6.39986 8.83147 6.56843 9.13153 6.86849C9.43159 7.16854 9.60016 7.57551 9.60016 7.99986C9.60016 8.4242 9.43159 8.83117 9.13153 9.13123C8.83147 9.43129 8.4245 9.59986 8.00016 9.59986Z" fill="#DDDDDD"/>
</svg>
