<svg width="16" height="16" viewBox="0 0 16 16" fill="none" xmlns="http://www.w3.org/2000/svg">
<path d="M0.160156 7.99998C0.89711 6.55439 2.01939 5.34071 3.40297 4.49305C4.78656 3.6454 6.37756 3.19678 8.00016 3.19678C9.62275 3.19678 11.2138 3.6454 12.5973 4.49305C13.9809 5.34071 15.1032 6.55439 15.8402 7.99998C15.1032 9.44556 13.9809 10.6593 12.5973 11.5069C11.2138 12.3546 9.62275 12.8032 8.00016 12.8032C6.37756 12.8032 4.78656 12.3546 3.40297 11.5069C2.01939 10.6593 0.89711 9.44556 0.160156 7.99998ZM8.00016 11.2C8.84885 11.2 9.66278 10.8628 10.2629 10.2627C10.863 9.6626 11.2002 8.84867 11.2002 7.99998C11.2002 7.15129 10.863 6.33735 10.2629 5.73724C9.66278 5.13712 8.84885 4.79998 8.00016 4.79998C7.15146 4.79998 6.33753 5.13712 5.73741 5.73724C5.1373 6.33735 4.80016 7.15129 4.80016 7.99998C4.80016 8.84867 5.1373 9.6626 5.73741 10.2627C6.33753 10.8628 7.15146 11.2 8.00016 11.2ZM8.00016 9.59998C7.57581 9.59998 7.16884 9.43141 6.86879 9.13135C6.56873 8.83129 6.40016 8.42432 6.40016 7.99998C6.40016 7.57563 6.56873 7.16867 6.86879 6.86861C7.16884 6.56855 7.57581 6.39998 8.00016 6.39998C8.4245 6.39998 8.83147 6.56855 9.13153 6.86861C9.43159 7.16867 9.60016 7.57563 9.60016 7.99998C9.60016 8.42432 9.43159 8.83129 9.13153 9.13135C8.83147 9.43141 8.4245 9.59998 8.00016 9.59998Z" fill="#DDDDDD"/>
</svg>
