<svg width="30" height="30" viewBox="0 0 30 30" fill="none" xmlns="http://www.w3.org/2000/svg">
<path d="M20.7472 19.5355C20.9081 19.6964 20.9986 19.9148 20.9986 20.1424C20.9986 20.37 20.9081 20.5884 20.7472 20.7493C20.5862 20.9103 20.3679 21.0007 20.1403 21.0007C19.9126 21.0007 19.6943 20.9103 19.5333 20.7493L15 16.2146L10.4652 20.7479C10.3043 20.9089 10.086 20.9993 9.85831 20.9993C9.63068 20.9993 9.41236 20.9089 9.25139 20.7479C9.09043 20.5869 9 20.3686 9 20.141C9 19.9133 9.09043 19.695 9.25139 19.5341L13.7862 15.0007L9.25282 10.4659C9.09186 10.305 9.00143 10.0867 9.00143 9.85903C9.00143 9.63139 9.09186 9.41307 9.25282 9.25211C9.41379 9.09114 9.6321 9.00071 9.85974 9.00071C10.0874 9.00071 10.3057 9.09114 10.4667 9.25211L15 13.7869L19.5348 9.25139C19.6957 9.09043 19.914 9 20.1417 9C20.3693 9 20.5876 9.09043 20.7486 9.25139C20.9096 9.41236 21 9.63068 21 9.85831C21 10.086 20.9096 10.3043 20.7486 10.4652L16.2138 15.0007L20.7472 19.5355Z" fill="black"/>
</svg>
