<svg width="320" height="48" viewBox="0 0 320 48" fill="none" xmlns="http://www.w3.org/2000/svg">
<rect x="0.5" y="0.5" width="319" height="47" rx="4.5" fill="#FEE500" stroke="#FEE500"/>
<path fill-rule="evenodd" clip-rule="evenodd" d="M84.9998 17.3335C89.2151 17.3335 92.5 20.0976 92.5 23.5095C92.5 26.9211 89.2151 29.6852 84.9998 29.6852C84.5328 29.6852 84.0744 29.6478 83.6253 29.582L80.7329 31.4485C80.6916 31.4813 80.6459 31.5002 80.5999 31.5002C80.5404 31.5002 80.4856 31.4769 80.4442 31.4344C80.3847 31.3736 80.3617 31.2841 80.3894 31.1997L80.908 28.7232C78.7821 27.6252 77.5 25.7008 77.5 23.5095C77.5 20.0976 80.7847 17.3335 84.9998 17.3335Z" fill="black"/>
<path d="M107.266 18.6641C107.26 20.2214 107.081 21.6198 106.727 22.8594C106.372 24.0938 105.727 25.25 104.789 26.3281C103.852 27.401 102.549 28.3516 100.883 29.1797L99.9297 27.8672C101.378 27.1536 102.513 26.3542 103.336 25.4688C104.164 24.5781 104.742 23.6042 105.07 22.5469C105.404 21.4896 105.573 20.2682 105.578 18.8828V18.6641H107.266ZM106.609 20.0703H100.781V18.6641H106.609V20.0703ZM100.273 23.9766L100.047 22.4766L105.531 22.1406V23.4766L100.273 23.9766ZM110.984 31.3672H109.25V17.2656H110.984V31.3672ZM113.078 24.2266H110.539V22.7891H113.078V24.2266ZM121.094 18.6641C121.089 20.2214 120.909 21.6198 120.555 22.8594C120.201 24.0938 119.555 25.25 118.617 26.3281C117.68 27.401 116.378 28.3516 114.711 29.1797L113.758 27.8672C115.206 27.1536 116.341 26.3542 117.164 25.4688C117.992 24.5781 118.57 23.6042 118.898 22.5469C119.232 21.4896 119.401 20.2682 119.406 18.8828V18.6641H121.094ZM120.438 20.0703H114.609V18.6641H120.438V20.0703ZM114.102 23.9766L113.875 22.4766L119.359 22.1406V23.4766L114.102 23.9766ZM124.812 31.3672H123.078V17.2656H124.812V31.3672ZM126.906 24.2266H124.367V22.7891H126.906V24.2266ZM134.859 28.5469H133.148V25.2031H134.859V28.5469ZM134.016 18.0547C135.016 18.0599 135.914 18.2214 136.711 18.5391C137.513 18.8516 138.141 19.2969 138.594 19.875C139.047 20.4531 139.273 21.1172 139.273 21.8672C139.273 22.638 139.047 23.3125 138.594 23.8906C138.141 24.4688 137.513 24.9167 136.711 25.2344C135.914 25.5469 135.016 25.7031 134.016 25.7031C133.01 25.7031 132.109 25.5469 131.312 25.2344C130.521 24.9167 129.896 24.4688 129.438 23.8906C128.984 23.3073 128.758 22.6328 128.758 21.8672C128.758 21.1172 128.984 20.4531 129.438 19.875C129.896 19.2969 130.521 18.8516 131.312 18.5391C132.109 18.2214 133.01 18.0599 134.016 18.0547ZM134.016 19.4531C133.323 19.4583 132.706 19.5599 132.164 19.7578C131.628 19.9505 131.208 20.2292 130.906 20.5938C130.609 20.9583 130.461 21.3828 130.461 21.8672C130.461 22.3724 130.609 22.8099 130.906 23.1797C131.208 23.5443 131.628 23.8255 132.164 24.0234C132.701 24.2161 133.318 24.3151 134.016 24.3203C134.708 24.3151 135.323 24.2161 135.859 24.0234C136.396 23.8255 136.812 23.5443 137.109 23.1797C137.411 22.8099 137.562 22.3724 137.562 21.8672C137.562 21.3828 137.411 20.9583 137.109 20.5938C136.812 20.2292 136.393 19.9505 135.852 19.7578C135.315 19.5599 134.703 19.4583 134.016 19.4531ZM140.492 29.6797H127.586V28.25H140.492V29.6797ZM154.273 26.1797H141.383V24.7969H154.273V26.1797ZM148.688 25.1953H146.953V23.0312H148.688V25.1953ZM152.656 31.375H150.898V28.5469H142.836V27.1719H152.656V31.375ZM152.836 23.6016H143.031V22.2812H152.836V23.6016ZM152.734 18.9609H144.773V22.9531H143.031V17.6094H152.734V18.9609ZM152.383 21.2344H144.266V19.9297H152.383V21.2344ZM161.672 18.0547C162.656 18.0547 163.549 18.2214 164.352 18.5547C165.154 18.888 165.784 19.3594 166.242 19.9688C166.701 20.5729 166.93 21.2682 166.93 22.0547C166.93 22.8464 166.701 23.5469 166.242 24.1562C165.784 24.7604 165.154 25.2292 164.352 25.5625C163.549 25.8906 162.656 26.0547 161.672 26.0547C160.682 26.0547 159.789 25.8906 158.992 25.5625C158.195 25.2292 157.565 24.7604 157.102 24.1562C156.643 23.5469 156.414 22.8464 156.414 22.0547C156.414 21.2682 156.643 20.5729 157.102 19.9688C157.565 19.3594 158.195 18.888 158.992 18.5547C159.789 18.2214 160.682 18.0547 161.672 18.0547ZM161.672 19.4609C160.984 19.4609 160.37 19.5677 159.828 19.7812C159.286 19.9896 158.862 20.2917 158.555 20.6875C158.247 21.0833 158.096 21.5391 158.102 22.0547C158.096 22.5755 158.247 23.0312 158.555 23.4219C158.862 23.8073 159.284 24.1068 159.82 24.3203C160.362 24.5286 160.979 24.6328 161.672 24.6328C162.354 24.6328 162.964 24.5286 163.5 24.3203C164.042 24.1068 164.464 23.8073 164.766 23.4219C165.068 23.0312 165.219 22.5755 165.219 22.0547C165.219 21.5391 165.065 21.0833 164.758 20.6875C164.456 20.2917 164.034 19.9896 163.492 19.7812C162.956 19.5677 162.349 19.4609 161.672 19.4609ZM168.148 29.6172H155.242V28.1953H168.148V29.6172ZM181.977 29.75H169.07V28.3203H181.977V29.75ZM176.344 28.9297H174.633V25.5312H176.344V28.9297ZM180.438 22.7656H172.328V25.3281H170.594V21.3984H178.727V19.6328H170.57V18.2266H180.438V22.7656ZM180.773 26.0078H170.594V24.5938H180.773V26.0078ZM191.719 20.6562C191.719 21.8333 191.557 22.9427 191.234 23.9844C190.917 25.026 190.448 25.9453 189.828 26.7422C189.214 27.5391 188.477 28.1406 187.617 28.5469L186.555 27.0938C187.32 26.7656 187.984 26.2708 188.547 25.6094C189.109 24.9427 189.539 24.1823 189.836 23.3281C190.133 22.4688 190.284 21.5781 190.289 20.6562V18.3984H191.719V20.6562ZM192.039 20.6562C192.039 21.5312 192.185 22.3776 192.477 23.1953C192.768 24.013 193.19 24.7448 193.742 25.3906C194.294 26.0312 194.945 26.5104 195.695 26.8281L194.664 28.2188C193.82 27.8281 193.094 27.2526 192.484 26.4922C191.875 25.7266 191.409 24.8438 191.086 23.8438C190.763 22.8438 190.602 21.7812 190.602 20.6562V18.3984H192.039V20.6562ZM198.453 31.4141H196.695V17.2656H198.453V31.4141ZM205.266 19.7109C205.266 20.5964 205.112 21.4245 204.805 22.1953C204.497 22.9661 204.044 23.638 203.445 24.2109C202.852 24.7839 202.135 25.2135 201.297 25.5L200.375 24.1562C201.115 23.9115 201.745 23.5599 202.266 23.1016C202.786 22.638 203.18 22.1172 203.445 21.5391C203.716 20.9557 203.852 20.3464 203.852 19.7109V18.7188H205.266V19.7109ZM205.602 19.7266C205.596 20.3151 205.721 20.8828 205.977 21.4297C206.232 21.9766 206.609 22.4661 207.109 22.8984C207.609 23.3307 208.221 23.6667 208.945 23.9062L208.062 25.25C207.234 24.974 206.529 24.5599 205.945 24.0078C205.367 23.4557 204.927 22.8125 204.625 22.0781C204.328 21.3438 204.18 20.5599 204.18 19.7266V18.7188H205.602V19.7266ZM208.531 19.5469H200.867V18.1562H208.531V19.5469ZM211.672 25.7812H209.938V17.2656H211.672V25.7812ZM213.648 22.25H211.18V20.7969H213.648V22.25ZM211.672 31.375H209.938V27.8203H202.258V26.4297H211.672V31.375ZM225.422 31.375H223.703V17.2656H225.422V31.375ZM227.602 24.3281H225.031V22.8984H227.602V24.3281ZM222.609 20.8281H214.289V19.4297H222.609V20.8281ZM218.492 21.7422C219.164 21.7422 219.771 21.8854 220.312 22.1719C220.854 22.4531 221.279 22.8464 221.586 23.3516C221.893 23.8568 222.049 24.4297 222.055 25.0703C222.049 25.7109 221.893 26.2839 221.586 26.7891C221.279 27.2943 220.854 27.6875 220.312 27.9688C219.771 28.25 219.164 28.3906 218.492 28.3906C217.815 28.3906 217.206 28.25 216.664 27.9688C216.122 27.6875 215.698 27.2943 215.391 26.7891C215.089 26.2839 214.938 25.7109 214.938 25.0703C214.938 24.4297 215.089 23.8568 215.391 23.3516C215.698 22.8464 216.122 22.4531 216.664 22.1719C217.206 21.8854 217.815 21.7422 218.492 21.7422ZM218.492 23.1719C218.128 23.1719 217.802 23.25 217.516 23.4062C217.229 23.5625 217.003 23.7865 216.836 24.0781C216.674 24.3646 216.594 24.6953 216.594 25.0703C216.594 25.4505 216.674 25.7839 216.836 26.0703C217.003 26.3516 217.229 26.5703 217.516 26.7266C217.802 26.8828 218.128 26.9583 218.492 26.9531C218.857 26.9583 219.182 26.8828 219.469 26.7266C219.76 26.5703 219.984 26.3516 220.141 26.0703C220.302 25.7839 220.385 25.4505 220.391 25.0703C220.385 24.6953 220.302 24.3646 220.141 24.0781C219.984 23.7865 219.76 23.5625 219.469 23.4062C219.182 23.25 218.857 23.1719 218.492 23.1719ZM219.352 19.9922H217.625V17.4688H219.352V19.9922ZM239.984 31.375H238.227V17.2656H239.984V31.375ZM235.773 18.7656C235.768 20.2396 235.555 21.5911 235.133 22.8203C234.711 24.0443 234.013 25.1719 233.039 26.2031C232.07 27.2344 230.789 28.1276 229.195 28.8828L228.273 27.4922C229.633 26.8464 230.737 26.112 231.586 25.2891C232.435 24.4609 233.057 23.5365 233.453 22.5156C233.849 21.4948 234.047 20.3438 234.047 19.0625V18.7656H235.773ZM234.828 20.1406H228.992V18.7656H234.828V20.1406Z" fill="black"/>
</svg>
